<?xml version="1.0" encoding="UTF-8"?><svg
  id="Ebene_2"
  xmlns="http://www.w3.org/2000/svg"
  viewBox="0 0 279.61 279.61"
>
  <g>
    <polygon
      fill="#fff"
      points="50.76 94.37 50.76 185.24 100.52 185.24 149.6 225.24 149.6 54.37 100.52 94.37 50.76 94.37"
    />
    <path
      fill="#fff"
      d="M169.71,101.6c10.2,10.21,15.82,23.77,15.82,38.2s-5.62,28-15.82,38.2l9.19,9.19c12.66-12.66,19.63-29.49,19.63-47.39s-6.97-34.73-19.63-47.39l-9.19,9.19Z"
    />
    <path
      fill="#fff"
      d="M209.05,66.65l-9.89,8.44c14.86,17.42,23.04,40.4,23.04,64.72s-8.18,47.3-23.04,64.72l9.89,8.44c35-41.02,35-105.29,0-146.31Z"
    />
  </g>
</svg>