<?xml version="1.0" encoding="UTF-8"?><svg
  id="Ebene_2"
  xmlns="http://www.w3.org/2000/svg"
  viewBox="0 0 279.61 279.61"
>
  <g>
    <polygon
      fill="#fff"
      points="149.6 54.37 113.18 84.05 149.6 120.47 149.6 54.37"
    />
    <polygon
      fill="#fff"
      points="50.76 94.37 50.76 185.24 100.52 185.24 149.6 225.24 149.6 178.73 65.24 94.37 50.76 94.37"
    />
    <path
      fill="#fff"
      d="M183.54,154.41l10.25,10.25c3.11-7.8,4.74-16.21,4.74-24.86,0-17.9-6.97-34.73-19.63-47.39l-9.19,9.19c10.2,10.21,15.82,23.77,15.82,38.2,0,5.01-.68,9.91-1.99,14.61Z"
    />
    <path
      fill="#fff"
      d="M212.64,183.51l9.71,9.71c20.91-39.93,16.47-91.67-13.31-126.57l-9.89,8.44c14.86,17.41,23.05,40.4,23.05,64.71,0,15.48-3.32,30.41-9.56,43.71Z"
    />
    <polygon
      fill="#fff"
      points="206.33 194.88 187.75 176.3 178.3 166.85 149.6 138.15 103.44 91.99 58.99 47.54 47.53 58.99 82.91 94.37 149.6 161.05 220.62 232.07 232.07 220.62 215.7 204.25 206.33 194.88"
    />
  </g>
</svg>