<svg xmlns="http://www.w3.org/2000/svg" version="1.1" xmlns:xlink="http://www.w3.org/1999/xlink" width="393.12" height="393.12"><svg xmlns="http://www.w3.org/2000/svg" version="1.1" xmlns:xlink="http://www.w3.org/1999/xlink" width="393.12" height="393.12"><svg id="Ebene_2" xmlns="http://www.w3.org/2000/svg" xmlns:xlink="http://www.w3.org/1999/xlink" viewBox="0 0 393.12 393.12"><defs><style>.cls-1{fill:#180e23;}.cls-2{fill:#00cbb2;}.cls-3{fill:url(#Unbenannter_Verlauf_47);}</style><linearGradient id="Unbenannter_Verlauf_47" x1="196.56" y1="79.42" x2="196.56" y2="313.71" gradientUnits="userSpaceOnUse"><stop offset="0" stop-color="#00cbb2"></stop><stop offset=".13" stop-color="#1bd0ba"></stop><stop offset=".42" stop-color="#61decf"></stop><stop offset=".83" stop-color="#d0f5f0"></stop><stop offset="1" stop-color="#fff"></stop></linearGradient></defs><g id="Extras"><path class="cls-1" d="M382.12,196.56c0,102.32-83.24,185.56-185.56,185.56S11,298.88,11,196.56,94.24,11,196.56,11s185.56,83.24,185.56,185.56Z"></path><path class="cls-2" d="M196.56,0C88.17,0,0,88.18,0,196.56s88.17,196.56,196.56,196.56,196.56-88.17,196.56-196.56S304.94,0,196.56,0ZM196.56,382.12c-102.32,0-185.56-83.24-185.56-185.56S94.24,11,196.56,11s185.56,83.24,185.56,185.56-83.24,185.56-185.56,185.56Z"></path><polygon class="cls-3" points="285.3 196.56 196.56 313.71 107.82 196.56 196.56 79.42 285.3 196.56"></polygon></g></svg></svg><style>@media (prefers-color-scheme: light) { :root { filter: none; } }
@media (prefers-color-scheme: dark) { :root { filter: none; } }
</style></svg>