<?xml version="1.0" encoding="utf-8"?>
<!-- Generator: Adobe Illustrator 30.1.0, SVG Export Plug-In . SVG Version: 9.03 Build 0)  -->
<svg version="1.0" id="svg2698" xmlns:svg="http://www.w3.org/2000/svg"
	 xmlns="http://www.w3.org/2000/svg" xmlns:xlink="http://www.w3.org/1999/xlink" x="0px" y="0px" viewBox="0 0 731 315.7"
	 style="enable-background:new 0 0 731 315.7;" xml:space="preserve">
<style type="text/css">
	.st0{fill-rule:evenodd;clip-rule:evenodd;fill:#FFFFFF;}
	.st1{fill:#007CBF;}
	.st2{fill:#B1C900;}
</style>
<g id="layer1" transform="translate(-283.08021,-245.5233)">
	<path id="path215" class="st0" d="M322,409.6v35.4c0,0.9,0.5,1.4,1.4,1.4h6.7c0.9,0,1.4-0.5,1.4-1.4v-75.8c0-0.9-0.5-1.4-1.4-1.4
		h-6.7c-0.9,0-1.4,0.5-1.4,1.4v32.3h-29.5v-32.3c0-0.9-0.5-1.4-1.4-1.4h-6.7c-0.9,0-1.4,0.5-1.4,1.4v75.8c0,0.9,0.5,1.4,1.4,1.4h6.7
		c0.9,0,1.4-0.5,1.4-1.4v-35.4H322z"/>
	<path id="path219" class="st0" d="M374.4,440.4c-13,0-15.6-13.2-15.6-33.3c0-20,2.9-33.1,15.6-33.1c12.8,0,15.6,13.2,15.6,33.1
		C390,427.2,387.3,440.4,374.4,440.4 M400.3,407.1c0-24.4-7.7-40.8-25.9-40.8c-18.4,0-25.9,16.3-25.9,40.8
		c0,24.4,7.5,40.9,25.9,40.9C392.7,448,400.3,431.5,400.3,407.1"/>
	<path id="path223" class="st0" d="M456.2,434.5c-0.3-0.3-0.8-0.9-1.1-0.9c-0.8,0-7.2,6.8-13.9,6.8c-11.7,0-16.3-13.9-16.3-35.1
		c0-19.5,3.1-31.3,15.5-31.3c6.6,0,13.1,6.8,13.9,6.8c0.5,0,0.8-0.5,1.2-0.9l2.4-3.1c0.5-0.6,0.7-1,0.7-1.6c0-1.8-8.3-8.8-18.4-8.8
		c-20,0-25.6,18.4-25.6,40.1c0,23.7,6.9,41.6,26.4,41.6c10.1,0,18.4-7,18.4-8.8c0-0.6-0.2-1-0.7-1.6L456.2,434.5z"/>
	<path id="path227" class="st0" d="M513.7,409.6v35.4c0,0.9,0.5,1.4,1.4,1.4h6.7c0.9,0,1.4-0.5,1.4-1.4v-75.8c0-0.9-0.5-1.4-1.4-1.4
		h-6.7c-0.9,0-1.4,0.5-1.4,1.4v32.3h-29.5v-32.3c0-0.9-0.5-1.4-1.4-1.4h-6.6c-0.9,0-1.4,0.5-1.4,1.4v75.8c0,0.9,0.5,1.4,1.4,1.4h6.6
		c0.9,0,1.4-0.5,1.4-1.4v-35.4H513.7z"/>
	<path id="path231" class="st0" d="M580.7,373.8c0.1-0.5,0.5-1,0.5-1.4c0-0.3-0.3-0.9-0.9-1.3c-1.6-0.8-9-4.9-18.1-4.9
		c-11.9,0-22.8,7.3-22.8,20.5c0,23.7,33.5,20.9,33.5,39.9c0,7.7-5,13.1-13.6,13.1c-8,0-15-3.8-17.3-4.8c-0.6-0.3-1.1-0.6-1.6-0.6
		c-0.7,0-0.9,0.6-1.3,1.5l-1.5,3.8c-0.1,0.5-0.5,1-0.5,1.4c0,0.6,0.3,1,0.9,1.3c1.7,0.8,10.2,5.7,20.9,5.7c14,0,24.3-8.5,24.3-22.5
		c0-7.6-3.1-13-9.3-18c-9.2-7.6-24.2-9.7-24.2-21.8c0-7.7,5.3-11.2,12.2-11.2c6.5,0,12.4,2.9,14.6,4c0.6,0.3,1.1,0.6,1.6,0.6
		c0.8,0,0.8-0.6,1.3-1.5L580.7,373.8z"/>
	<path id="path235" class="st0" d="M637.3,434.5c-0.3-0.3-0.8-0.9-1.1-0.9c-0.8,0-7.2,6.8-13.9,6.8c-11.7,0-16.3-13.9-16.3-35.1
		c0-19.5,3.1-31.3,15.5-31.3c6.7,0,13.1,6.8,13.9,6.8c0.5,0,0.8-0.5,1.2-0.9l2.4-3.1c0.5-0.6,0.7-1,0.7-1.6c0-1.8-8.3-8.8-18.4-8.8
		c-20,0-25.6,18.4-25.6,40.1c0,23.7,6.9,41.6,26.4,41.6c10.1,0,18.4-7,18.4-8.8c0-0.6-0.2-1-0.7-1.6L637.3,434.5z"/>
	<path id="path239" class="st0" d="M694.8,409.6v35.4c0,0.9,0.5,1.4,1.4,1.4h6.6c0.9,0,1.4-0.5,1.4-1.4v-75.8c0-0.9-0.5-1.4-1.4-1.4
		h-6.6c-0.9,0-1.4,0.5-1.4,1.4v32.3h-29.5v-32.3c0-0.9-0.5-1.4-1.4-1.4h-6.7c-0.9,0-1.4,0.5-1.4,1.4v75.8c0,0.9,0.5,1.4,1.4,1.4h6.7
		c0.9,0,1.4-0.5,1.4-1.4v-35.4H694.8z"/>
	<path id="path243" class="st0" d="M775.9,369.2c0-0.9-0.5-1.4-1.4-1.4h-6.6c-0.9,0-1.4,0.5-1.4,1.4v55.9c0,10.4-5.2,15.3-15.7,15.3
		c-10.8,0-14.5-5.9-14.5-15.3v-55.9c0-0.9-0.5-1.4-1.4-1.4h-6.7c-0.9,0-1.4,0.5-1.4,1.4v56.1c0,13.9,6.4,22.7,23.7,22.7
		c17.5,0,25.2-9,25.2-22.7V369.2z"/>
	<path id="path247" class="st0" d="M807.8,438.4v-69.2c0-0.9-0.5-1.4-1.4-1.4h-6.6c-0.9,0-1.4,0.5-1.4,1.4v75.8
		c0,0.9,0.5,1.4,1.4,1.4h34.6c0.8,0,1.5-0.3,1.8-1.3l1.6-4.4c0.1-0.6,0.5-1,0.5-1.5c0-0.7-0.6-0.9-1.4-0.9H807.8z"/>
	<path id="path251" class="st0" d="M890.2,439.7c0-0.8-0.5-1.3-1.4-1.3h-27.5v-29h22.5c1.3,0,1.5-0.2,1.5-1.5v-5.1
		c0-1.3-0.2-1.5-1.5-1.5h-22.5v-25.5h25.5c1,0,1.4,0,1.7-1l1.6-4.8c0.1-0.5,0.3-1.1,0.3-1.5c0-0.3-0.2-0.7-1.5-0.7h-35.7
		c-0.9,0-1.4,0.5-1.4,1.4v75.8c0,0.9,0.5,1.4,1.4,1.4h35.3c1.3,0,1.6-0.2,1.6-1.6V439.7z"/>
	<path id="path255" class="st0" d="M495,482.4c-0.5-1.3-0.8-1.3-1.7-1.3h-6.8c-1.3,0-1.4,0.1-1.7,1.3L461.8,557
		c-0.3,0.8-0.5,1.4-0.6,1.9c0,0.6,0.5,0.7,1.6,0.7h7.1c1.4,0,1.8-0.5,2.1-1.3l5.9-22.1h23.5l6.4,22.1c0.2,0.8,0.7,1.3,2.1,1.3h7.1
		c1.1,0,1.6-0.1,1.6-0.7c-0.1-0.6-0.3-1.1-0.6-1.9L495,482.4z M499.2,528.2h-19.2l7-25.3c0.8-3.1,1.9-8.1,2.4-10.9h0.2
		c0.6,3.2,1.7,7.3,2.6,10.9L499.2,528.2z"/>
	<path id="path259" class="st0" d="M580.6,482.5c0-0.9-0.5-1.4-1.4-1.4h-6c-0.9,0-1.4,0.5-1.4,1.4v54.7c0,2.1,0.7,4.6,1,7l-0.2,0.2
		c-1-3.4-1.4-6-2.8-8.8l-25.3-53.4c-0.3-0.7-0.8-1-1.7-1H535c-0.9,0-1.4,0.6-1.4,1.4v75.8c0,0.9,0.5,1.4,1.4,1.4h6
		c0.9,0,1.4-0.5,1.4-1.4v-56c0-2.5-0.2-5.8-1.1-10.2l0.2-0.2c0.6,3.2,1.7,7,3.1,10l26.4,56.7c0.5,0.8,0.9,1.1,1.8,1.1h6.4
		c0.9,0,1.4-0.6,1.4-1.4V482.5z"/>
	<path id="path263" class="st0" d="M638.7,487.1c0.1-0.5,0.5-1,0.5-1.4c0-0.3-0.3-0.9-0.9-1.3c-1.6-0.8-9-4.9-18.1-4.9
		c-11.9,0-22.8,7.3-22.8,20.5c0,23.7,33.5,20.9,33.5,39.9c0,7.7-5,13.1-13.6,13.1c-8,0-15-3.8-17.3-4.8c-0.6-0.3-1.1-0.6-1.6-0.6
		c-0.7,0-0.9,0.6-1.3,1.5l-1.5,3.8c-0.1,0.5-0.5,1-0.5,1.4c0,0.6,0.3,1,0.9,1.3c1.7,0.8,10.2,5.7,20.9,5.7c14,0,24.3-8.5,24.3-22.5
		c0-7.6-3.1-13-9.3-18c-9.2-7.6-24.2-9.7-24.2-21.8c0-7.7,5.3-11.2,12.2-11.2c6.5,0,12.4,2.9,14.6,4c0.6,0.3,1.1,0.6,1.6,0.6
		c0.8,0,0.8-0.6,1.3-1.5L638.7,487.1z"/>
	<path id="path267" class="st0" d="M668.1,551.6v-28.2h10.6c7.9,0,15.5,3.1,15.5,14.2c0,11.4-7.5,14-14.9,14H668.1z M668.1,515.7
		v-26.6h10.6c6.8,0,12.7,1.5,12.7,11.7c0,13.4-8.5,14.9-15.1,14.9H668.1z M660,481.1c-0.9,0-1.4,0.5-1.4,1.4v75.8
		c0,0.9,0.5,1.4,1.4,1.4h16.7c9.2,0,15.6-0.6,20.1-4.4c2.8-2.4,7.6-7.8,7.6-17.3c0-14-8.3-17.8-14.1-19.5c3.8-2,11.4-6.7,11.4-18.7
		c0-17.8-14.2-18.7-22.8-18.7H660z"/>
	<path id="path271" class="st0" d="M748.6,482.4c-0.5-1.3-0.8-1.3-1.7-1.3h-6.8c-1.3,0-1.4,0.1-1.7,1.3L715.4,557
		c-0.3,0.8-0.5,1.4-0.6,1.9c0,0.6,0.5,0.7,1.6,0.7h7.1c1.4,0,1.8-0.5,2.1-1.3l5.9-22.1H755l6.4,22.1c0.2,0.8,0.7,1.3,2.1,1.3h7.1
		c1.1,0,1.6-0.1,1.6-0.7c-0.1-0.6-0.3-1.1-0.6-1.9L748.6,482.4z M752.8,528.2h-19.2l7-25.3c0.8-3.1,1.9-8.1,2.4-10.9h0.2
		c0.6,3.2,1.7,7.3,2.6,10.9L752.8,528.2z"/>
	<path id="path275" class="st0" d="M823.2,547.7c-0.3-0.3-0.8-0.9-1.1-0.9c-0.8,0-7.2,6.8-13.9,6.8c-11.7,0-16.3-13.9-16.3-35.1
		c0-19.5,3.1-31.3,15.5-31.3c6.6,0,13.1,6.8,13.9,6.8c0.5,0,0.8-0.5,1.2-0.9l2.4-3.1c0.5-0.6,0.7-1,0.7-1.6c0-1.8-8.3-8.8-18.4-8.8
		c-20,0-25.6,18.4-25.6,40.1c0,23.7,6.9,41.6,26.4,41.6c10.1,0,18.4-7,18.4-8.8c0-0.6-0.2-1-0.7-1.6L823.2,547.7z"/>
	<path id="path279" class="st0" d="M880.8,522.8v35.4c0,0.9,0.5,1.4,1.4,1.4h6.7c0.9,0,1.4-0.5,1.4-1.4v-75.8c0-0.9-0.5-1.4-1.4-1.4
		h-6.7c-0.9,0-1.4,0.5-1.4,1.4v32.3h-29.5v-32.3c0-0.9-0.5-1.4-1.4-1.4h-6.7c-0.9,0-1.4,0.5-1.4,1.4v75.8c0,0.9,0.5,1.4,1.4,1.4h6.7
		c0.9,0,1.4-0.5,1.4-1.4v-35.4H880.8z"/>
	<path id="path281" class="st1" d="M924.2,290.5h44.9v-44.9h-44.9V290.5z"/>
	<path id="path283" class="st1" d="M969.1,335.4h44.9v-44.9h-44.9V335.4z"/>
	<path id="path285" class="st1" d="M924.2,380.4h44.9v-44.9h-44.9V380.4z"/>
	<path id="path287" class="st2" d="M879.2,335.4h44.9v-44.9h-44.9V335.4z"/>
</g>
</svg>
